<svg xmlns="http://www.w3.org/2000/svg" viewBox="0 0 24 16">
  <clipPath id="flag-us-round"><rect width="24" height="16" rx="2"/></clipPath>
  <g clip-path="url(#flag-us-round)">
    <rect width="24" height="16" fill="#FFFFFF"/>
    <g fill="#B22234">
      <rect y="0" width="24" height="1.23"/>
      <rect y="2.46" width="24" height="1.23"/>
      <rect y="4.92" width="24" height="1.23"/>
      <rect y="7.38" width="24" height="1.23"/>
      <rect y="9.85" width="24" height="1.23"/>
      <rect y="12.31" width="24" height="1.23"/>
      <rect y="14.77" width="24" height="1.23"/>
    </g>
    <rect width="9.6" height="8.62" fill="#3C3B6E"/>
    <g fill="#FFFFFF">
      <circle cx="1.6" cy="1.7" r="0.45"/><circle cx="3.5" cy="1.7" r="0.45"/><circle cx="5.4" cy="1.7" r="0.45"/><circle cx="7.3" cy="1.7" r="0.45"/>
      <circle cx="2.55" cy="3.1" r="0.45"/><circle cx="4.45" cy="3.1" r="0.45"/><circle cx="6.35" cy="3.1" r="0.45"/><circle cx="8.25" cy="3.1" r="0.45"/>
      <circle cx="1.6" cy="4.5" r="0.45"/><circle cx="3.5" cy="4.5" r="0.45"/><circle cx="5.4" cy="4.5" r="0.45"/><circle cx="7.3" cy="4.5" r="0.45"/>
      <circle cx="2.55" cy="5.9" r="0.45"/><circle cx="4.45" cy="5.9" r="0.45"/><circle cx="6.35" cy="5.9" r="0.45"/><circle cx="8.25" cy="5.9" r="0.45"/>
      <circle cx="1.6" cy="7.3" r="0.45"/><circle cx="3.5" cy="7.3" r="0.45"/><circle cx="5.4" cy="7.3" r="0.45"/><circle cx="7.3" cy="7.3" r="0.45"/>
    </g>
  </g>
</svg>
